<svg xmlns="http://www.w3.org/2000/svg" viewBox="0 0 24 25.83"><defs><style>.cls-1{fill:#0f5f8f;}</style></defs><title>caller</title><g id="Layer_2" data-name="Layer 2"><g id="Layer_1-2" data-name="Layer 1"><path class="cls-1" d="M18.42,17.56a9.32,9.32,0,0,1-12.84,0C2.23,19.11,0,21.84,0,24.94a6.5,6.5,0,0,0,.06.89H23.94a6.5,6.5,0,0,0,.06-.89C24,21.84,21.77,19.11,18.42,17.56Z"/><path class="cls-1" d="M12,15.17a1.54,1.54,0,0,1,1.46,1.05,9.06,9.06,0,0,0,2.25-.32A7,7,0,0,0,19.77,13a8.09,8.09,0,1,0-1.37,2.69,8.43,8.43,0,0,1-2.46,1.11,10,10,0,0,1-2.47.35,1.54,1.54,0,1,1-1.46-2Z"/><path class="cls-1" d="M3.09,12.86v-5a9.27,9.27,0,0,1,17.82,0v5a3.37,3.37,0,0,0,.78-6.3,10.43,10.43,0,0,0-19.37,0,3.37,3.37,0,0,0,.78,6.3Z"/></g></g></svg>