<svg xmlns="http://www.w3.org/2000/svg" viewBox="0 0 190.14 80"><defs><style>.cls-1{fill:#c32032;}.cls-2{fill:#fff;}.cls-3{fill:none;stroke:#c32032;stroke-width:0.37px;}</style></defs><title>logo-wide</title><g id="Layer_2" data-name="Layer 2"><g id="Layer_1-2" data-name="Layer 1"><rect class="cls-1" x="111.76" width="78.37" height="80"/><polygon class="cls-2" points="131.57 37.04 134.54 37.04 135.21 37.71 135.21 50.06 133.11 50.06 133.11 39.6 132.89 39.6 129.74 50.06 127.12 50.06 124 39.6 123.75 39.6 123.75 50.06 121.65 50.06 121.65 37.71 122.32 37.04 125.3 37.04 128.29 47.75 128.59 47.75 131.57 37.04"/><path class="cls-2" d="M141.2,37h3l4,12.5-1.12.52h-.95l-1.27-4h-4.37l-1.27,4h-.95l-1.12-.52Zm3.07,7.05-1.51-4.82h-.13l-1.51,4.82Z"/><path class="cls-2" d="M150.91,37h5.43a1.65,1.65,0,0,1,1.21.5l.73.72a1.65,1.65,0,0,1,.5,1.21V42.1a1.65,1.65,0,0,1-.5,1.21l-.73.73a1.54,1.54,0,0,1-.33.26l-.2,0,2.33,4.87-.88.87h-1l-2.62-5.54h-2.48v5.54h-2.12V37.71Zm5.66,2.46-.41-.41a.33.33,0,0,0-.24-.09h-3.57v3.59h3.57a.33.33,0,0,0,.24-.09l.41-.41a.37.37,0,0,0,.09-.24v-2.1a.36.36,0,0,0-.09-.24"/><polygon class="cls-2" points="162.19 37.04 169.39 37.04 170.06 37.71 170.06 39.85 163.27 47.98 163.27 48.11 170.32 48.11 170.32 49.39 169.65 50.06 161.84 50.06 161.15 49.39 161.15 47.29 167.94 39.18 167.94 38.99 161.5 38.99 161.5 37.71 162.19 37.04"/><path class="cls-2" d="M174.91,37h4.89l.69.67V39h-5.15a.34.34,0,0,0-.24.09l-.41.41a.37.37,0,0,0-.09.24v2.83h4.89v2H174.6v2.85a.37.37,0,0,0,.09.24l.41.41a.33.33,0,0,0,.24.09h5.15v1.28l-.69.67h-4.89a1.65,1.65,0,0,1-1.21-.5l-.73-.73a1.64,1.64,0,0,1-.5-1.21V39.47a1.65,1.65,0,0,1,.5-1.21l.73-.72a1.65,1.65,0,0,1,1.21-.5"/><polygon class="cls-2" points="132.78 55.9 136.07 55.9 136.81 56.64 136.81 70.31 134.49 70.31 134.49 58.74 134.24 58.74 130.76 70.31 127.85 70.31 124.39 58.74 124.12 58.74 124.12 70.31 121.8 70.31 121.8 56.64 122.54 55.9 125.83 55.9 129.15 67.76 129.48 67.76 132.78 55.9"/><path class="cls-2" d="M143.09,55.9h4a1.83,1.83,0,0,1,1.34.56l1.65,1.63a1.82,1.82,0,0,1,.58,1.36v7.33a1.83,1.83,0,0,1-.58,1.36l-1.65,1.63a1.82,1.82,0,0,1-1.34.56h-4a1.82,1.82,0,0,1-1.34-.56l-1.65-1.63a1.81,1.81,0,0,1-.58-1.36V59.44a1.81,1.81,0,0,1,.58-1.36l1.65-1.63a1.82,1.82,0,0,1,1.34-.56m5.13,3.56-1.3-1.3a.37.37,0,0,0-.27-.1h-3.09a.36.36,0,0,0-.27.1l-1.3,1.3a.34.34,0,0,0-.12.27v6.76a.34.34,0,0,0,.12.27l1.3,1.3a.36.36,0,0,0,.27.1h3.09a.36.36,0,0,0,.27-.1l1.3-1.3a.33.33,0,0,0,.13-.27V59.73a.33.33,0,0,0-.13-.27"/><path class="cls-2" d="M154.24,55.9h6a1.83,1.83,0,0,1,1.34.56l.8.8A1.83,1.83,0,0,1,163,58.6v2.9a1.82,1.82,0,0,1-.56,1.34l-.8.8a1.75,1.75,0,0,1-.37.29l-.23,0,2.57,5.4-1,1h-1.13l-2.9-6.14h-2.74v6.14h-2.35V56.64Zm6.26,2.72-.45-.45a.37.37,0,0,0-.27-.1h-4v4h4a.37.37,0,0,0,.27-.1l.45-.45a.43.43,0,0,0,.1-.27V58.88a.42.42,0,0,0-.1-.27"/><polygon class="cls-2" points="166.6 55.9 168.18 55.9 168.18 70.31 165.85 70.31 165.85 56.64 166.6 55.9"/><polygon class="cls-2" points="171.07 55.9 180.11 55.9 180.85 56.64 180.85 58.06 176.75 58.06 176.75 70.31 174.42 70.31 174.42 58.06 170.32 58.06 170.32 56.64 171.07 55.9"/><path class="cls-2" d="M154.08,11.15c-.2.24-1.26,1.9-1.44,2.16a1.93,1.93,0,0,0-.18,2.23c.47.65,7.32,11.72,7.37,11.79.93,1.4,2.17,1,2.52.57s1.18-2,1.44-2.37a1.89,1.89,0,0,0-.29-2.19l-7.19-11.5c-.19-.3-1.08-2-2.23-.68"/><path class="cls-2" d="M141.13,18.92a25.41,25.41,0,0,1,1.95,3,2.09,2.09,0,0,1-.29,1.77c-.45.76-2.78,4.56-3,4.89-.41.58-1,.43-1.44,0a35,35,0,0,1-2-3.24,1.26,1.26,0,0,1,0-1.32c.44-.71,2.81-4.43,3.2-5a1,1,0,0,1,1.58-.14"/><path class="cls-2" d="M144.34,11.15c-.2.24-1.26,1.9-1.44,2.16a1.93,1.93,0,0,0-.18,2.23c.47.65,7.33,11.72,7.37,11.79.94,1.4,2.17,1,2.52.57s1.18-2,1.44-2.37a1.9,1.9,0,0,0-.29-2.19l-7.19-11.5c-.19-.3-1.08-2-2.23-.68"/><path class="cls-1" d="M1.16,68.11a5.59,5.59,0,0,0,2.83.8c1.62,0,2.56-.85,2.56-2.09S5.9,65,4.25,64.38C2.25,63.68,1,62.64,1,60.91,1,59,2.6,57.59,5,57.59a5.56,5.56,0,0,1,2.71.6l-.44,1.29a4.87,4.87,0,0,0-2.32-.58c-1.67,0-2.31,1-2.31,1.84,0,1.14.75,1.71,2.44,2.36,2.07.8,3.12,1.8,3.12,3.6s-1.4,3.53-4.29,3.53a6.33,6.33,0,0,1-3.12-.78Z"/><path class="cls-1" d="M11,61.24l1.16,4.47c.25,1,.49,1.89.65,2.8h.05c.2-.89.49-1.83.78-2.78l1.44-4.49h1.35l1.36,4.4c.33,1.05.58,2,.78,2.87h.05a26.59,26.59,0,0,1,.67-2.85l1.25-4.41h1.58L19.31,70H17.86l-1.35-4.2a29.4,29.4,0,0,1-.78-2.89h0a25.87,25.87,0,0,1-.8,2.91L13.48,70H12l-2.65-8.8Z"/><path class="cls-1" d="M23.85,61.24h1.6V70h-1.6Zm1.78-2.47a1,1,0,0,1-2,0,1,1,0,0,1,1-1,1,1,0,0,1,1,1"/><path class="cls-1" d="M28,68.4A4.2,4.2,0,0,0,30.1,69c1.16,0,1.71-.58,1.71-1.31s-.45-1.18-1.64-1.62c-1.58-.56-2.33-1.43-2.33-2.49,0-1.42,1.14-2.58,3-2.58a4.38,4.38,0,0,1,2.16.55l-.4,1.16a3.43,3.43,0,0,0-1.8-.51c-.94,0-1.47.54-1.47,1.2s.53,1.05,1.67,1.49c1.53.58,2.31,1.34,2.31,2.65,0,1.55-1.2,2.64-3.29,2.64a5,5,0,0,1-2.47-.6Z"/><path class="cls-1" d="M35.3,68.4a4.19,4.19,0,0,0,2.11.63c1.16,0,1.71-.58,1.71-1.31s-.45-1.18-1.64-1.62c-1.58-.56-2.33-1.43-2.33-2.49,0-1.42,1.14-2.58,3-2.58a4.38,4.38,0,0,1,2.16.55L40,62.75a3.42,3.42,0,0,0-1.8-.51c-.94,0-1.47.54-1.47,1.2s.53,1.05,1.67,1.49c1.53.58,2.31,1.34,2.31,2.65,0,1.55-1.2,2.64-3.29,2.64a5,5,0,0,1-2.47-.6Z"/><path class="cls-1" d="M46.62,68.11a5.6,5.6,0,0,0,2.83.8c1.62,0,2.56-.85,2.56-2.09s-.65-1.8-2.31-2.44c-2-.71-3.23-1.74-3.23-3.47,0-1.91,1.58-3.33,4-3.33a5.57,5.57,0,0,1,2.71.6l-.44,1.29a4.87,4.87,0,0,0-2.32-.58c-1.67,0-2.31,1-2.31,1.84,0,1.14.75,1.71,2.44,2.36,2.07.8,3.13,1.8,3.13,3.6s-1.4,3.53-4.29,3.53a6.34,6.34,0,0,1-3.13-.78Z"/><path class="cls-1" d="M56.43,61.24l1.93,5.2c.2.58.42,1.27.56,1.8h0c.17-.53.35-1.2.57-1.84l1.74-5.16H63l-2.4,6.27c-1.15,3-1.93,4.56-3,5.51a4.34,4.34,0,0,1-2,1l-.4-1.34a4.22,4.22,0,0,0,1.4-.78,4.83,4.83,0,0,0,1.34-1.78,1.2,1.2,0,0,0,.13-.38,1.42,1.42,0,0,0-.11-.42l-3.25-8.1Z"/><path class="cls-1" d="M64.28,68.4a4.2,4.2,0,0,0,2.11.63c1.16,0,1.71-.58,1.71-1.31s-.45-1.18-1.64-1.62c-1.58-.56-2.32-1.43-2.32-2.49,0-1.42,1.14-2.58,3-2.58a4.37,4.37,0,0,1,2.16.55l-.4,1.16a3.44,3.44,0,0,0-1.8-.51c-.94,0-1.47.54-1.47,1.2s.53,1.05,1.67,1.49c1.53.58,2.31,1.34,2.31,2.65,0,1.55-1.2,2.64-3.29,2.64a5,5,0,0,1-2.47-.6Z"/><path class="cls-1" d="M73.72,58.72v2.53H76v1.22H73.72V67.2c0,1.09.31,1.71,1.2,1.71a3.65,3.65,0,0,0,.93-.11l.07,1.2a3.9,3.9,0,0,1-1.42.22,2.21,2.21,0,0,1-1.73-.67,3.26,3.26,0,0,1-.62-2.29v-4.8H70.8V61.24h1.36V59.13Z"/><path class="cls-1" d="M83.5,64.79a2.27,2.27,0,0,0-2.21-2.6,2.65,2.65,0,0,0-2.45,2.6Zm-4.69,1.14a2.82,2.82,0,0,0,3,3.05,5.8,5.8,0,0,0,2.43-.46l.27,1.15a7.16,7.16,0,0,1-2.92.54,4.09,4.09,0,0,1-4.33-4.43c0-2.65,1.56-4.74,4.12-4.74C84.28,61,85,63.57,85,65.18a5.76,5.76,0,0,1-.05.75Z"/><path class="cls-1" d="M87.13,63.62c0-.91,0-1.65-.07-2.38h1.4l.07,1.42h.06A3,3,0,0,1,91.35,61a2.6,2.6,0,0,1,2.49,1.76h0a3.65,3.65,0,0,1,1-1.14A3,3,0,0,1,96.8,61c1.16,0,2.89.77,2.89,3.82V70H98.12v-5c0-1.69-.62-2.71-1.91-2.71a2.07,2.07,0,0,0-1.89,1.45,2.68,2.68,0,0,0-.13.8V70H92.64V64.77c0-1.4-.62-2.42-1.84-2.42a2.19,2.19,0,0,0-2,1.6,2.24,2.24,0,0,0-.13.78V70H87.13Z"/><path class="cls-1" d="M1.94,44.53a1,1,0,0,0,.8-.81V35.17H1V33.34H11.88v13H10V35.17H4.57v8.91A2.61,2.61,0,0,1,2.3,46.36H.78V44.53ZM17,39.77v-4.6H15V33.34h3.84v6.43Zm11.61,6.59V35.17H21.86V33.34h8.58v13Zm6.79,0V35.17H33.65V33.34h3.58v13Zm9.45-11.19L42.52,46.36H40.66l2-9.74a2.53,2.53,0,0,1,1-1.45H40.8V33.34h7.08a3.28,3.28,0,0,1,2.9,2.9V46.36H45.38V44.53h3.57V36.22a1.28,1.28,0,0,0-1-1Zm17.62,4.6v-4.6h-2V33.34h3.84v6.43Zm7.41-4.6,1,.76a1.48,1.48,0,0,1,.72,1.47v9H69.81V36.94l-2.41-2V33.34h6v1.83ZM83.12,46.36V35.17H76.37V33.34h8.58v13Zm9.31-11.19L90.1,46.36H88.25l2-9.74a2.53,2.53,0,0,1,1-1.45h-2.9V33.34h7.08a3.28,3.28,0,0,1,2.9,2.9V46.36H93V44.53h3.57V36.22a1.28,1.28,0,0,0-1.05-1Z"/><path class="cls-3" d="M0,76.82H100.77M0,51.33H100.77"/></g></g></svg>