<svg xmlns="http://www.w3.org/2000/svg" viewBox="0 0 150 229.59"><defs><style>.cls-1{fill:#c32032;}.cls-2,.cls-3{fill:none;}.cls-2{stroke:#c32032;stroke-width:0.37px;}.cls-4{fill:#fff;}</style></defs><title>logo-narrow</title><g id="Layer_2" data-name="Layer 2"><g id="Layer_1-2" data-name="Layer 1"><path class="cls-1" d="M1.73,216.12a8.33,8.33,0,0,0,4.22,1.19c2.41,0,3.82-1.27,3.82-3.11s-1-2.68-3.44-3.62c-3-1.06-4.82-2.6-4.82-5.17,0-2.84,2.35-4.95,5.9-4.95a8.28,8.28,0,0,1,4,.89l-.65,1.92a7.24,7.24,0,0,0-3.46-.87c-2.49,0-3.44,1.49-3.44,2.73,0,1.7,1.11,2.54,3.63,3.52,3.08,1.19,4.65,2.68,4.65,5.35s-2.08,5.25-6.38,5.25a9.43,9.43,0,0,1-4.65-1.16Z"/><path class="cls-1" d="M16.39,205.9l1.73,6.65c.38,1.46.73,2.81,1,4.17h.08c.3-1.32.73-2.73,1.16-4.14l2.14-6.68h2l2,6.55c.49,1.57.87,2.95,1.16,4.27h.08a39.49,39.49,0,0,1,1-4.25l1.87-6.57H33L28.75,219H26.59l-2-6.25a43.76,43.76,0,0,1-1.16-4.3h-.05a38.55,38.55,0,0,1-1.19,4.33L20.06,219H17.9L14,205.9Z"/><path class="cls-1" d="M35.5,205.9h2.38V219H35.5Zm2.65-3.68a1.47,1.47,0,0,1-2.95,0,1.45,1.45,0,0,1,1.49-1.49,1.41,1.41,0,0,1,1.46,1.49"/><path class="cls-1" d="M41.67,216.55a6.25,6.25,0,0,0,3.14.94c1.73,0,2.54-.87,2.54-1.95s-.68-1.76-2.44-2.41c-2.35-.84-3.46-2.14-3.46-3.7,0-2.11,1.7-3.84,4.52-3.84a6.52,6.52,0,0,1,3.22.81l-.59,1.73a5.1,5.1,0,0,0-2.68-.75c-1.4,0-2.19.81-2.19,1.78s.79,1.57,2.49,2.22c2.27.87,3.44,2,3.44,3.95,0,2.3-1.79,3.92-4.9,3.92a7.45,7.45,0,0,1-3.68-.89Z"/><path class="cls-1" d="M52.54,216.55a6.25,6.25,0,0,0,3.14.94c1.73,0,2.54-.87,2.54-1.95s-.68-1.76-2.44-2.41c-2.35-.84-3.46-2.14-3.46-3.7,0-2.11,1.7-3.84,4.52-3.84a6.52,6.52,0,0,1,3.22.81l-.6,1.73a5.09,5.09,0,0,0-2.68-.75c-1.41,0-2.19.81-2.19,1.78s.79,1.57,2.49,2.22c2.27.87,3.44,2,3.44,3.95,0,2.3-1.79,3.92-4.9,3.92a7.46,7.46,0,0,1-3.68-.89Z"/><path class="cls-1" d="M69.39,216.12a8.32,8.32,0,0,0,4.22,1.19c2.41,0,3.81-1.27,3.81-3.11s-1-2.68-3.44-3.62c-3-1.06-4.81-2.6-4.81-5.17,0-2.84,2.35-4.95,5.9-4.95a8.28,8.28,0,0,1,4,.89l-.65,1.92a7.24,7.24,0,0,0-3.46-.87c-2.49,0-3.44,1.49-3.44,2.73,0,1.7,1.11,2.54,3.63,3.52,3.08,1.19,4.65,2.68,4.65,5.35s-2.08,5.25-6.39,5.25a9.45,9.45,0,0,1-4.65-1.16Z"/><path class="cls-1" d="M84,205.9l2.87,7.73c.3.87.62,1.9.84,2.68h.05c.25-.78.52-1.79.84-2.73l2.6-7.68H93.7l-3.57,9.33c-1.71,4.49-2.87,6.79-4.49,8.2A6.45,6.45,0,0,1,82.72,225l-.59-2a6.31,6.31,0,0,0,2.08-1.16,7.19,7.19,0,0,0,2-2.65,1.79,1.79,0,0,0,.19-.57,2.11,2.11,0,0,0-.17-.62L81.39,205.9Z"/><path class="cls-1" d="M95.67,216.55a6.25,6.25,0,0,0,3.14.94c1.73,0,2.54-.87,2.54-1.95s-.68-1.76-2.44-2.41c-2.35-.84-3.46-2.14-3.46-3.7,0-2.11,1.7-3.84,4.52-3.84a6.51,6.51,0,0,1,3.22.81l-.59,1.73a5.11,5.11,0,0,0-2.68-.75c-1.4,0-2.19.81-2.19,1.78s.78,1.57,2.49,2.22c2.27.87,3.44,2,3.44,3.95,0,2.3-1.78,3.92-4.9,3.92a7.44,7.44,0,0,1-3.68-.89Z"/><path class="cls-1" d="M109.73,202.14v3.76h3.41v1.81h-3.41v7.06c0,1.62.46,2.54,1.79,2.54a5.41,5.41,0,0,0,1.38-.16l.11,1.78a5.8,5.8,0,0,1-2.11.32,3.3,3.3,0,0,1-2.57-1,4.85,4.85,0,0,1-.92-3.41v-7.14h-2V205.9h2v-3.14Z"/><path class="cls-1" d="M124.28,211.17c0-1.52-.62-3.87-3.3-3.87-2.41,0-3.46,2.22-3.65,3.87Zm-7,1.7c.05,3.22,2.11,4.54,4.49,4.54a8.63,8.63,0,0,0,3.62-.68l.41,1.71a10.67,10.67,0,0,1-4.35.81c-4,0-6.44-2.65-6.44-6.6s2.33-7.06,6.14-7.06c4.28,0,5.41,3.76,5.41,6.17a8.53,8.53,0,0,1-.08,1.11Z"/><path class="cls-1" d="M129.69,209.44c0-1.35,0-2.46-.11-3.55h2.08l.11,2.11h.08a4.51,4.51,0,0,1,4.11-2.41,3.87,3.87,0,0,1,3.7,2.63h.05a5.44,5.44,0,0,1,1.46-1.7,4.47,4.47,0,0,1,2.9-.92c1.73,0,4.3,1.14,4.3,5.68V219h-2.33v-7.41c0-2.51-.92-4-2.84-4a3.08,3.08,0,0,0-2.81,2.16,4,4,0,0,0-.19,1.19V219h-2.32v-7.84c0-2.08-.92-3.6-2.73-3.6a3.26,3.26,0,0,0-3,2.38,3.33,3.33,0,0,0-.19,1.16V219h-2.32Z"/><path class="cls-1" d="M2.89,181a1.41,1.41,0,0,0,1.19-1.2V167.09H1.42v-2.73H17.68v19.38H15V167.09H6.81v13.27a3.88,3.88,0,0,1-3.39,3.39H1.16V181Zm22.4-7.08v-6.85h-3v-2.73H28v9.58Zm17.29,9.81V167.09h-10v-2.73H45.3v19.38Zm10.1,0V167.09H50.09v-2.73h5.32v19.38Zm14.06-16.66-3.46,16.66H60.53l3-14.49A3.76,3.76,0,0,1,65,167.09H60.73v-2.73H71.27a4.88,4.88,0,0,1,4.32,4.32v15.06h-8V181h5.32V168.66a1.91,1.91,0,0,0-1.56-1.56ZM93,173.94v-6.85H90v-2.73h5.72v9.58Zm11-6.85,1.56,1.13a2.2,2.2,0,0,1,1.07,2.19v13.33H103.9v-14l-3.59-2.92v-2.43h8.91v2.73Zm19.71,16.66V167.09h-10v-2.73h12.77v19.38Zm13.86-16.66-3.46,16.66h-2.76l3-14.49a3.76,3.76,0,0,1,1.53-2.16h-4.32v-2.73H142.1a4.88,4.88,0,0,1,4.32,4.32v15.06h-8V181h5.32V168.66a1.91,1.91,0,0,0-1.56-1.56Z"/><path class="cls-2" d="M0,229.09H150M0,191.15H150"/><rect class="cls-3" width="150" height="229.59"/><rect class="cls-1" width="150" height="153.12"/><polygon class="cls-4" points="37.9 70.89 43.6 70.89 44.88 72.17 44.88 95.81 40.86 95.81 40.86 75.8 40.43 75.8 34.41 95.81 29.39 95.81 23.41 75.8 22.95 75.8 22.95 95.81 18.92 95.81 18.92 72.17 20.2 70.89 25.9 70.89 31.63 91.4 32.21 91.4 37.9 70.89"/><path class="cls-4" d="M56.35,70.89h5.73l7.69,23.93-2.14,1H65.82L63.4,88.13H55l-2.42,7.69H50.79l-2.14-1Zm5.88,13.5-2.88-9.22h-.25L56.2,84.39Z"/><path class="cls-4" d="M74.93,70.89h10.4a3.16,3.16,0,0,1,2.31,1L89,73.24a3.16,3.16,0,0,1,1,2.31v5a3.16,3.16,0,0,1-1,2.31l-1.39,1.39a3,3,0,0,1-.64.5l-.39,0,4.45,9.33-1.68,1.67h-2l-5-10.61H77.67V95.81H73.62V72.17Zm10.82,4.7L85,74.81a.63.63,0,0,0-.47-.18H77.67V81.5h6.83a.62.62,0,0,0,.47-.18l.78-.78a.7.7,0,0,0,.18-.46v-4a.69.69,0,0,0-.18-.46"/><rect class="cls-3" width="150" height="229.59"/><polygon class="cls-4" points="96.51 70.89 110.29 70.89 111.57 72.17 111.57 76.27 98.58 91.83 98.58 92.08 112.07 92.08 112.07 94.54 110.79 95.81 95.84 95.81 94.52 94.54 94.52 90.51 107.51 74.98 107.51 74.63 95.2 74.63 95.2 72.17 96.51 70.89"/><path class="cls-4" d="M120.87,70.89h9.36l1.32,1.28v2.46h-9.86a.65.65,0,0,0-.47.18l-.78.79a.71.71,0,0,0-.18.46v5.41h9.37V85.2h-9.37v5.45a.7.7,0,0,0,.18.46l.78.79a.64.64,0,0,0,.47.18h9.86v2.46l-1.32,1.28h-9.36a3.16,3.16,0,0,1-2.32-1l-1.39-1.39a3.13,3.13,0,0,1-1-2.31V75.55a3.15,3.15,0,0,1,1-2.31l1.39-1.39a3.16,3.16,0,0,1,2.32-1"/><rect class="cls-3" width="150" height="229.59"/><polygon class="cls-4" points="40.22 106.98 46.53 106.98 47.95 108.4 47.95 134.58 43.49 134.58 43.49 112.42 43.02 112.42 36.36 134.58 30.8 134.58 24.17 112.42 23.66 112.42 23.66 134.58 19.21 134.58 19.21 108.4 20.62 106.98 26.93 106.98 33.28 129.69 33.91 129.69 40.22 106.98"/><path class="cls-4" d="M60,107h7.73A3.5,3.5,0,0,1,70.26,108l3.16,3.12a3.48,3.48,0,0,1,1.1,2.6v14a3.49,3.49,0,0,1-1.1,2.6l-3.16,3.12a3.49,3.49,0,0,1-2.56,1.07H60a3.49,3.49,0,0,1-2.56-1.07l-3.16-3.12a3.48,3.48,0,0,1-1.1-2.6v-14a3.47,3.47,0,0,1,1.1-2.6L57.41,108A3.5,3.5,0,0,1,60,107m9.81,6.82-2.49-2.48a.7.7,0,0,0-.51-.2H60.87a.7.7,0,0,0-.51.2l-2.49,2.48a.64.64,0,0,0-.24.51v12.93a.65.65,0,0,0,.24.51l2.49,2.48a.69.69,0,0,0,.51.2h5.91a.69.69,0,0,0,.51-.2l2.49-2.48a.64.64,0,0,0,.24-.51V114.32a.64.64,0,0,0-.24-.51"/><path class="cls-4" d="M81.29,107H92.8A3.5,3.5,0,0,1,95.37,108l1.53,1.54A3.5,3.5,0,0,1,98,112.15v5.56a3.48,3.48,0,0,1-1.07,2.56l-1.53,1.54a3.34,3.34,0,0,1-.71.55l-.44,0,4.93,10.33-1.85,1.85H95.13l-5.56-11.75H84.33v11.75H79.83V108.4Zm12,5.2-.87-.87a.71.71,0,0,0-.52-.2H84.33v7.61H91.9a.71.71,0,0,0,.52-.2l.87-.87a.83.83,0,0,0,.2-.51V112.7a.81.81,0,0,0-.2-.51"/><rect class="cls-3" width="150" height="229.59"/><polygon class="cls-4" points="104.95 106.98 107.98 106.98 107.98 134.58 103.53 134.58 103.53 108.4 104.95 106.98"/><polygon class="cls-4" points="113.5 106.98 130.81 106.98 132.23 108.4 132.23 111.12 124.38 111.12 124.38 134.58 119.93 134.58 119.93 111.12 112.08 111.12 112.08 108.4 113.5 106.98"/><path class="cls-4" d="M81,21.35c-.39.46-2.4,3.63-2.75,4.13s-1.65,2.48-.34,4.27C78.8,31,91.91,52.18,92,52.32c1.79,2.68,4.15,2,4.82,1.1s2.26-3.81,2.75-4.54c1.38-2.06-.55-4.19-.55-4.19s-13.4-21.45-13.76-22S83.19,18.74,81,21.35"/><path class="cls-4" d="M56.22,36.21A48.61,48.61,0,0,1,59.94,42a4,4,0,0,1-.56,3.39c-.86,1.45-5.33,8.73-5.78,9.36-.79,1.1-1.93.83-2.75,0A67,67,0,0,1,47,48.59a2.41,2.41,0,0,1,.09-2.53c.85-1.36,5.39-8.48,6.12-9.57a1.88,1.88,0,0,1,3-.27"/><path class="cls-4" d="M62.36,21.35C62,21.81,60,25,59.61,25.48S58,28,59.26,29.75c.91,1.24,14,22.43,14.11,22.57,1.79,2.68,4.15,2,4.82,1.1s2.26-3.81,2.75-4.54c1.37-2.06-.55-4.19-.55-4.19S67,23.23,66.62,22.66s-2.06-3.92-4.26-1.31"/><rect class="cls-3" width="150" height="229.59"/></g></g></svg>