<svg xmlns="http://www.w3.org/2000/svg" viewBox="0 0 247 247"><defs><style>.cls-1,.cls-3{fill:#c20101;}.cls-2{fill:#fff;}.cls-3{stroke:#fff;stroke-miterlimit:10;stroke-width:3px;}.cls-4{fill:#fcfcfc;}</style></defs><title>stamp</title><g id="Layer_2" data-name="Layer 2"><g id="Layer_1-2" data-name="Layer 1"><path class="cls-1" d="M123.5,245.5a122,122,0,1,1,122-122A122.14,122.14,0,0,1,123.5,245.5Z"/><path class="cls-2" d="M123.5,3A120.5,120.5,0,1,1,3,123.5,120.5,120.5,0,0,1,123.5,3m0-3A123.5,123.5,0,0,0,36.17,210.83,123.5,123.5,0,0,0,210.83,36.17,122.69,122.69,0,0,0,123.5,0Z"/><circle class="cls-3" cx="123.5" cy="123.5" r="70.78"/><path class="cls-2" d="M30.5,117.57l-.19,4.81-16.17,1.07q-1.49.13-1.32-4.17t1.85-4.06Zm8.62-.46-.25,6.49-6.78-.27.25-6.49Z"/><path class="cls-2" d="M31.32,95.73a16,16,0,0,1,3,.9,15.3,15.3,0,0,1,3.3,2.43l3.82,3.66L39.68,111l-.5-.11-4.84-4.7a9.94,9.94,0,0,0-4.9-2.65L23,102.11l-1.65,7.7L10.5,107.49l1.68-7.82,4.48,1,1.65-7.7Z"/><path class="cls-2" d="M50,80.86l-6.79,14.8L37.4,93l2.8-6.11L29.48,82l-2.72,5.92-5.89-2.7,6-13.17,16.61,7.62.66-1.44Z"/><path class="cls-2" d="M58.32,69.3l-4,5.55-4.14-2.56c-.18-.13-.3-.15-.36-.06a.37.37,0,0,0,0,.41q1.52,2.52,1.76,3.1,1.09,2.28.49,3.12l-.24.33-6-4.36-.09-.57a21.87,21.87,0,0,0-.87-3.85,3.65,3.65,0,0,0-1.43-2l-3.83-2.77q-.68-.49-1,0L37,67.77,31.73,64l3.45-4.76a5.64,5.64,0,0,1,3.44-2.58q1.78-.29,4.28,1.52Z"/><path class="cls-2" d="M67.14,60.28l-5.67,5.64L48.64,53l-1.2,1.19-4.57-4.59,6.87-6.83Z"/><path class="cls-2" d="M82.71,42.31q3.17,4.88-1.65,8l-.88.57a13.31,13.31,0,0,1-2.7,1.46l-3.39-5.23.59-.38A1.07,1.07,0,0,0,75,45.05l-5.75-8.87L67,37.65l9.09,15.79-6.8,4.41-8.76-16-1.38.9-3.52-5.43L72.41,26.42Z"/><path class="cls-2" d="M108.29,45.41l-7.75,2L94.77,24.76,93,25.2l-1.6-6.27,9.5-2.42Z"/><path class="cls-2" d="M129.59,32.87q.24,5.81-5.49,6l-1,0a13.31,13.31,0,0,1-3.07-.12l-.26-6.22.7,0a1.07,1.07,0,0,0,1.14-1.28l-.43-10.56-2.69.11-.22,18.22-8.09.33.61-18.23-1.64.07-.27-6.47,20-.82Z"/><path class="cls-2" d="M147.52,23.37l-1.58-.28a.61.61,0,0,0-.7.27q-.27.5-.54,1.11t-.53,1.32a24,24,0,0,0-.79,4.51l-1.22,10.6-8-1.41,1.21-10.31A12.14,12.14,0,0,1,137,23.68l1.45-1.73-.05-.18-3-.53,1.12-6.38L148.64,17Z"/><path class="cls-2" d="M165.26,36.76a16,16,0,0,1-1.36,2.83A15.35,15.35,0,0,1,161,42.47l-4.21,3.2-7.86-3,.19-.48,5.4-4a9.94,9.94,0,0,0,3.38-4.42l2.39-6.17-7.34-2.84,4-10.32,7.46,2.88-1.65,4.28L170,24.35Z"/><path class="cls-2" d="M190.64,61.64a6.92,6.92,0,0,1-2.53,2q-3.18,1.31-6.42-1.54l-9.86-8.68,4.23-4.8,1.54,1.36,10.94-14.72,6,5.27L183.3,55l.69.61a.94.94,0,0,0,1.49-.17l11.34-12.88,6,5.29Z"/><path class="cls-2" d="M212.29,75.78a4.21,4.21,0,0,1-1,.5,6.57,6.57,0,0,1-3-.37q-.87-.23-1.61-.48a13.17,13.17,0,0,1-1.35-.53l-2.76,5.41a6.16,6.16,0,0,1-2,2.37l-1.81,1.21L188.62,68.74l5.28-3.54,4.34,6.47c.06.09.11.07.16-.06a12.91,12.91,0,0,1,.67-1.82,21.22,21.22,0,0,1,1-1.95l8-13.49.41-.27,4.71,7-5.42,9c0,.05.06.06.11,0s.3-.23.64-.47l1.44-1,5.74-3.85,4,5.94Z"/><path class="cls-2" d="M205.74,102.1l-5.59-15.29,6-2.2,2.31,6.31,11.08-4.05-2.24-6.12,6.08-2.22,5,13.61L211.2,98.42l.54,1.49Z"/><path class="cls-2" d="M214.34,123.46q-5.78.63-6.4-5.07l-.11-1a13.28,13.28,0,0,1-.09-3.07l6.19-.67.08.7a1.07,1.07,0,0,0,1.36,1.05l10.5-1.14-.29-2.68-18.19,1-.88-8.05,18.23-.62-.18-1.63,6.44-.7,2.16,19.89Z"/><path class="cls-2" d="M19.91,167.65l-2.36-5.94,5.9-2.34,2.36,5.94Zm7.87-4.19-1.65-4.15,15.4-8.2q1.12-.58,2,.85a9.18,9.18,0,0,1,.41.85q.26.6.65,1.58a15.94,15.94,0,0,1,.83,2.46q.33,1.71-.85,2Z"/><path class="cls-2" d="M27.5,182.32l-4.12-6.39,11.31-7.29L38.81,175Zm6.73,10.44-4.12-6.39,14.61-9.42-6.87-10.66,5.1-3.29,11,17.05Z"/><path class="cls-2" d="M51.38,201.83A7.78,7.78,0,0,1,49,203.62q-3.26,1.28-6.14-1.65l-4.26-4.35,4.24-4.15,2.2,2.25a1.17,1.17,0,0,0,1.86.08l7.28-7.11L51.53,186l4.34-4.24,7.83,8Z"/><path class="cls-2" d="M70.48,223.39l-6.3-4.18,9.6-14.49L69.62,202l-6.17,9.31a8.92,8.92,0,0,1-2.28,2.6,4.46,4.46,0,0,1-3.06.76,10.88,10.88,0,0,1-3.94-1.85l-.11-.07a13.86,13.86,0,0,1-2.56-2.22l3.16-4.76.45.34.61.42q.4.27.66.41a1.35,1.35,0,0,0,.44.17.36.36,0,0,0,.28,0,.94.94,0,0,0,.21-.24l9.32-14.07,16.8,11.13Z"/><path class="cls-2" d="M82.91,210.36l1.89-5.76,21.13,6.93-5.1,15.56q-1.12,3.4-3.2,4.55-2.26,1.25-6.14,0l-.12,0a15,15,0,0,1-3.4-1.49l1.78-5.43,1.63.53a2.34,2.34,0,0,0,1.64.11,2.17,2.17,0,0,0,.9-1.36l3-9.08-4.62-1.51-7,16.08L77.93,227l7.52-15.87Z"/><path class="cls-2" d="M125.62,236.46,106,235.11l.41-5.92,9.84.67.78-11.42-9.52-.65.42-6.05,17,1.17-1.2,17.47,2.32.16Z"/><path class="cls-2" d="M165.13,228.62l-20.3,5.91L138.28,212l20.3-5.91ZM156.22,225,153,214l-5.78,1.68,3.2,11Z"/><path class="cls-2" d="M179.71,221.13,173,224.66l-8.07-15.4-2.16,1.13L159.93,205l8.9-4.66Z"/><path class="cls-2" d="M187.59,204.58l-6.2,4.44-4.7-6.56L174.55,204,171,199.07l8.34-6Z"/><path class="cls-2" d="M218.71,184.32l-11.88,15.45L203.22,197l-1.56-11.1q-.17-1.29-.35-2.2a8.35,8.35,0,0,0-.39-1.42,4.65,4.65,0,0,0-1.57-2.4q-1.76-1.35-3,.25a1.9,1.9,0,0,0-.54,1.57,3,3,0,0,0,1.16,1.41l-4.34,5.64a9,9,0,0,1-2.47-2.48,6.33,6.33,0,0,1-1-3,7.93,7.93,0,0,1,.51-3.35,13.88,13.88,0,0,1,2.11-3.68,11.28,11.28,0,0,1,5.19-4.08,6.8,6.8,0,0,1,6.68,1.34,10.77,10.77,0,0,1,4,8l.59,6.47,5.68-7.39Z"/><path class="cls-2" d="M218.64,155.47q6.77,3.06,8.54,6.71,1.49,3.21-.61,7.87t-5.5,5.67q-3.94,1.09-10.69-2T201.75,167q-1.62-3.29.47-7.94t5.64-5.6Q211.83,152.4,218.64,155.47Zm-3.09,6.85a30.19,30.19,0,0,0-5.93-2.29q-1.06-.1-1.81,1.55t0,2.4a30.26,30.26,0,0,0,5.64,2.93,30.34,30.34,0,0,0,6,2.3q1.07.1,1.82-1.57t0-2.38A30.34,30.34,0,0,0,215.55,162.32Z"/><g id="_clock_" data-name="&lt;clock&gt;"><path class="cls-4" d="M110.69,105.17A31.46,31.46,0,1,0,150.54,125,31.47,31.47,0,0,0,110.69,105.17Zm35.24,21.35a26.6,26.6,0,1,1-13.38-15.34A26.42,26.42,0,0,1,145.92,126.52Zm-33.36-15.78A25.59,25.59,0,1,0,145,126.84,25.59,25.59,0,0,0,112.56,110.74Zm16.08,47.82a24.86,24.86,0,1,1,15.64-31.48A24.86,24.86,0,0,1,128.64,158.56Zm-1.53-3.72,1,3.05.5-.17-1-3.05Zm-12.78-39.68-1-3.05-.5.17,1,3.05Zm22.21,34.15,1.67,1.47.35-.4-1.67-1.47Zm-31.65-28.63-1.67-1.47-.35.4,1.67,1.47Zm36.69,18.8,2.19.44.1-.52-2.19-.44Zm-41.72-9-2.18-.44-.1.52,2.18.44Zm40.7-1.91,3.05-1-.17-.5-3.05,1Zm-39.68,12.78-3.05,1,.17.5,3.05-1ZM135,119.17l1.48-1.67-.4-.35-1.48,1.67ZM106.4,150.82l-1.48,1.67.4.35,1.47-1.67Zm18.8-36.69.44-2.18-.52-.1-.44,2.18Zm-9,41.72-.44,2.19.52.1.44-2.18ZM113.89,121l-1.1-3.27a2.61,2.61,0,0,0-.15-.39.1.1,0,0,0-.13,0,2.74,2.74,0,0,0-.38.27l0-.05.29-.32a2,2,0,0,0,.21-.32,2.77,2.77,0,0,0,.18-.45l.11,0,1.49,4.44a.56.56,0,0,0,.27.36.6.6,0,0,0,.45,0l0,.05-1.58.53,0-.05A.5.5,0,0,0,113.89,121Zm4.52-.87-3.19,1.07c.08-.13.2-.36.36-.68s.31-.63.45-.95a6.82,6.82,0,0,0,.29-.72,5,5,0,0,0,.27-1.18,2,2,0,0,0-.08-.73,1.38,1.38,0,0,0-.26-.48,1.08,1.08,0,0,0-.37-.28,1.15,1.15,0,0,0-.43-.1,1.2,1.2,0,0,0-.44.06,1.36,1.36,0,0,0-.38.2,1.21,1.21,0,0,0-.33.4,1.27,1.27,0,0,0-.14.6l-.1,0a1.77,1.77,0,0,1,0-.63,1.6,1.6,0,0,1,.33-.65,1.64,1.64,0,0,1,1.51-.52,1.35,1.35,0,0,1,.64.34,1.45,1.45,0,0,1,.38.6,2.09,2.09,0,0,1,.08.91,4.14,4.14,0,0,1-.24,1,8.48,8.48,0,0,1-.43,1q-.24.46-.58,1l-.08.13,2.16-.72a.62.62,0,0,0,.3-.19.78.78,0,0,0,.13-.34l.05,0Zm9.49,31.24a1.3,1.3,0,0,0-.64-.32,1.53,1.53,0,0,0-.79.06,1.28,1.28,0,0,0-.71.5,1.57,1.57,0,0,0-.24.62h0a4.4,4.4,0,0,1-.2-1.13,3.31,3.31,0,0,1,.15-1.08,2.48,2.48,0,0,1,.38-.78,2.62,2.62,0,0,1,.5-.52,4.34,4.34,0,0,1,.55-.35l0-.12a5,5,0,0,0-.93.57,2.68,2.68,0,0,0-.75,1,3.46,3.46,0,0,0-.3.86,3.71,3.71,0,0,0-.08.79,4.18,4.18,0,0,0,.06.65,3.25,3.25,0,0,0,.11.46,2.62,2.62,0,0,0,.31.64,2,2,0,0,0,.49.51,1.48,1.48,0,0,0,.66.26,1.69,1.69,0,0,0,.78-.09,1.87,1.87,0,0,0,.58-.32,1.54,1.54,0,0,0,.39-.47,1.39,1.39,0,0,0,.1-1.12A1.42,1.42,0,0,0,127.9,151.37Zm-.1,1.83a1,1,0,0,1-1.29.48,1.45,1.45,0,0,1-.57-.48,2.47,2.47,0,0,1-.36-.7,1.25,1.25,0,0,1,.26-.71,1.14,1.14,0,0,1,.5-.35.94.94,0,0,1,.59,0,1.21,1.21,0,0,1,.52.33,1.51,1.51,0,0,1,.34.57A1.17,1.17,0,0,1,127.8,153.2Zm8-26.48,0,0a.18.18,0,0,0,.22,0l.12-.06.11-.06a2.54,2.54,0,0,1,.51-.24,1.49,1.49,0,0,1,.69-.07,1.3,1.3,0,0,1,.62.25,1.14,1.14,0,0,1,.39.56,1.61,1.61,0,0,1,.07.47,1,1,0,0,1-.13.54,1.73,1.73,0,0,1-.62.59h0a1.79,1.79,0,0,1,1,0,1.27,1.27,0,0,1,.61.36,1.48,1.48,0,0,1,.3.5,1.37,1.37,0,0,1,.07.6,1.46,1.46,0,0,1-.19.57,1.74,1.74,0,0,1-.95.77,1.44,1.44,0,0,1-.76.07,3.16,3.16,0,0,1-.67-.23l-.08-.25a2.18,2.18,0,0,0,.72.24,1.46,1.46,0,0,0,.63-.07,1,1,0,0,0,.61-.48,1.12,1.12,0,0,0,.12-.59,2.17,2.17,0,0,0-.09-.46,1.19,1.19,0,0,0-.41-.61,1.36,1.36,0,0,0-.5-.24H138l-.26,0-.22.06-.45.15L137,129l.25-.08a1.24,1.24,0,0,0,.78-.61,1.19,1.19,0,0,0,0-.92,1.42,1.42,0,0,0-.3-.52.94.94,0,0,0-.43-.27.85.85,0,0,0-.51,0,.75.75,0,0,0-.49.4,1.93,1.93,0,0,0-.14.61l0,0Zm-31.33,11.85a2,2,0,0,0-.49-.5,1.49,1.49,0,0,0-.65-.26,1.72,1.72,0,0,0-.79.09,1.89,1.89,0,0,0-.58.31,1.51,1.51,0,0,0-.39.47,1.43,1.43,0,0,0-.17.55,1.38,1.38,0,0,0,.07.57,1.35,1.35,0,0,0,.69.8,1.4,1.4,0,0,0,1.13.05,1.27,1.27,0,0,0,.72-.5,1.58,1.58,0,0,0,.24-.63h0a4.5,4.5,0,0,1,.2,1.13,3.25,3.25,0,0,1-.15,1.08,2.53,2.53,0,0,1-.89,1.3,4.77,4.77,0,0,1-.55.34l0,.12q.33-.16.59-.32a3.32,3.32,0,0,0,.57-.47,2.81,2.81,0,0,0,.52-.75,3.48,3.48,0,0,0,.3-.87,3.77,3.77,0,0,0,.08-.82,4,4,0,0,0-.06-.65,3.46,3.46,0,0,0-.11-.44A2.65,2.65,0,0,0,104.45,138.57Zm-.57,1.43a1.15,1.15,0,0,1-.51.36.94.94,0,0,1-.59,0,1.2,1.2,0,0,1-.52-.33,1.51,1.51,0,0,1-.34-.57,1.17,1.17,0,0,1,0-.89,1,1,0,0,1,1.29-.48,1.46,1.46,0,0,1,.57.48,2.51,2.51,0,0,1,.36.71A1.23,1.23,0,0,1,103.88,140Zm38.19-32.63-24.83-7.14c2.09-6.91,8-9.48,14.28-8.06l.37-1.3c.14-.48.85-.69,1.6-.48s1.24.77,1.11,1.25L134.23,93C140.31,95.08,144,100.41,142.07,107.38Zm-55.79,0-1.11-.83c-.4-.3-1.1,0-1.56.59s-.52,1.37-.13,1.67l1.1.82C81,115,81.26,121.46,87,125.89l15.48-20.69C96.67,101,90.43,102.47,86.28,107.34ZM153.55,157a4.19,4.19,0,0,1-5.79,1.28l-2.5-1.6,4.51-7.07,2.5,1.6A4.19,4.19,0,0,1,153.55,157Zm-48.21,10a4.19,4.19,0,0,0,7.87,2.91l1-2.79-7.87-2.91Zm-1.53-67.75a4.61,4.61,0,1,1,6.9,2.39l.87,2.58-2.21.74-.87-2.59A4.61,4.61,0,0,1,103.82,99.21Z"/><g id="_hands_" data-name="&lt;hands&gt;"><path class="cls-4" d="M118.74,135.72l-3.55-.31a.17.17,0,0,1-.14-.19l.2-1.73a.17.17,0,0,1,.18-.16l3.59.51A2.06,2.06,0,0,0,118.74,135.72Zm17.86.59-14-2a2.05,2.05,0,0,1-.14,1.7l14.06,1.23a.17.17,0,0,0,.17-.17l.07-.57A.18.18,0,0,0,136.6,136.32Z"/><path class="cls-4" d="M122.64,135.56l2.6,1.84c.09.06.12.16.08.22l-.77,1.06a.17.17,0,0,1-.23,0l-2.56-1.93A2,2,0,0,0,122.64,135.56Zm-19.09-13.32-.26.35a.18.18,0,0,0,.07.23l15.35,11.62a2,2,0,0,1,.79-1.09l-15.71-11.1A.17.17,0,0,0,103.54,122.23Z"/><path class="cls-4" d="M120,133.08a2,2,0,1,0,2.59,1.29A2,2,0,0,0,120,133.08Zm1.24,3.68a1.84,1.84,0,1,1,1.16-2.33A1.84,1.84,0,0,1,121.24,136.76Z"/></g><path class="cls-4" d="M114.54,90.88c-.17.52-.28.49-.24,0l1.63-12.49a1.56,1.56,0,0,1,1.18-1.28l1,.09a1.12,1.12,0,0,1,.59,1.34Zm-1-11.75a.89.89,0,0,0-.71-.93l-.79.12a1.25,1.25,0,0,0-.67,1.22l1.1,10c.07.43.16.43.2,0Zm8.24,4.14a.86.86,0,0,0-.21-1.11l-.73-.24a1.2,1.2,0,0,0-1.1.76l-3.35,9.08c-.12.4,0,.43.18.08Z"/><path class="cls-4" d="M100.69,170.7c.5.22.47.32-.07.24l-12.31-2.7A1.56,1.56,0,0,1,87.14,167l.18-1a1.11,1.11,0,0,1,1.39-.47Zm-11.79,0a.89.89,0,0,0-1,.63l0,.8a1.25,1.25,0,0,0,1.16.78l10.09-.23c.43,0,.44-.12,0-.2Zm4.84-7.85a.86.86,0,0,0-1.12.12l-.3.71a1.2,1.2,0,0,0,.66,1.16l8.75,4.12c.39.16.43.08.09-.17Z"/><path class="cls-4" d="M88,91.37A1.12,1.12,0,0,1,87.41,90l.62-.78a1.57,1.57,0,0,1,1.74,0l10.13,7.48c.42.35.36.44-.13.21Zm12.16,3.31c.34.27.4.21.14-.14L93.8,86.8a1.25,1.25,0,0,0-1.35-.36l-.63.49A.89.89,0,0,0,92,88.09Zm-1.06,4.39c.41.09.44,0,.06-.18L90.27,95a1.2,1.2,0,0,0-1.31.27l-.33.69a.86.86,0,0,0,.65.92Z"/><path class="cls-4" d="M133.3,88.22a9.66,9.66,0,0,1,13.22,13.22A12.36,12.36,0,0,0,133.3,88.22Zm15.09-.12a17.82,17.82,0,0,1,5.27,14.16,14.19,14.19,0,0,0-19.43-19.43A17.82,17.82,0,0,1,148.39,88.09Zm7-4.57A23.23,23.23,0,0,1,162.23,102a18.5,18.5,0,0,0-25.32-25.32A23.22,23.22,0,0,1,155.36,83.52Z"/></g></g></g></svg>