<svg xmlns="http://www.w3.org/2000/svg" viewBox="0 0 24 24.57"><defs><style>.cls-1{fill:#0f5f8f;}</style></defs><title>time</title><g id="Layer_2" data-name="Layer 2"><g id="Layer_1-2" data-name="Layer 1"><circle class="cls-1" cx="13.56" cy="14.2" r="1.65" transform="translate(-5.96 12.11) rotate(-40.22)"/><polygon class="cls-1" points="14.16 14.91 12.95 13.48 18.36 9.73 18.76 10.2 14.16 14.91"/><path class="cls-1" d="M10.74.36V2.42a10.93,10.93,0,0,0,5.56,0V.36A10.93,10.93,0,0,0,10.74.36Z"/><path class="cls-1" d="M12.53,2.49V5.11a1.88,1.88,0,0,0,2.19,0V2.49A1.88,1.88,0,0,0,12.53,2.49Z"/><path class="cls-1" d="M21.5,5,20,7.26a2.41,2.41,0,0,1-2.33-1.55l1.53-2.3A2.41,2.41,0,0,1,21.5,5Z"/><path class="cls-1" d="M13.61,3.79A10.38,10.38,0,0,0,5.12,8.2H7.9a8.28,8.28,0,1,1-.35,11.6H4.88a10.39,10.39,0,1,0,8.73-16Z"/><rect class="cls-1" x="3.49" y="9.9" width="6.97" height="1.32"/><rect class="cls-1" x="1.27" y="13.34" width="6.97" height="1.32"/><rect class="cls-1" y="16.78" width="6.97" height="1.32"/></g></g></svg>