<?xml version="1.0" encoding="utf-8"?>
<!-- Generated by IcoMoon.io -->
<!DOCTYPE svg PUBLIC "-//W3C//DTD SVG 1.1//EN" "http://www.w3.org/Graphics/SVG/1.1/DTD/svg11.dtd">
<svg version="1.1" xmlns="http://www.w3.org/2000/svg" xmlns:xlink="http://www.w3.org/1999/xlink" width="27" height="32" viewBox="0 0 27 32">
<path fill="#0f5f8f" d="M17.746 8.597v0c2.513 0 5.465-2.254 8.766-6.625l0.53-0.699-0.823-0.316c-1.538-0.573-3.314-0.921-5.167-0.958-4.016-0-6.405 2.141-6.833 6.028-0.368 0.354-0.714 0.722-1.041 1.105-0.567-2.048-1.576-3.834-2.932-5.293l-1.379 1.236c2.794 3.177 2.851 6.039 2.603 7.549-1.14-0.296-2.45-0.472-3.8-0.484-3.242-0-5.552 1.228-6.678 3.56-2.546 5.273 0 12.935 5.69 17.442 0.63 0.522 1.442 0.843 2.33 0.856 1.194-0.058 2.271-0.504 3.121-1.212 0.833 0.709 1.91 1.154 3.089 1.212l0.012 0c0.901-0.002 1.727-0.32 2.373-0.85 5.729-4.502 8.23-12.164 5.684-17.437-1.127-2.344-3.38-3.572-6.67-3.572-1.175 0.010-2.313 0.145-3.408 0.392 0.15-0.359 0.174-0.75 0.174-1.147s-0.024-0.788-0.072-1.173c0.372-0.47 0.742-0.922 1.139-1.348 0.71 1.055 1.899 1.732 3.246 1.732 0.017 0 0.033-0 0.050-0zM21.048 1.318c0.765 0.006 1.508 0.080 2.23 0.215-2.886 0.419-5.38 1.512-7.476 3.104 0.75-2.226 2.463-3.308 5.234-3.308zM15.583 5.825c2.458-2.11 5.615-3.469 9.081-3.693-3.334 4.2-5.588 5.124-6.918 5.124v0c-0.012 0-0.025 0-0.039 0-0.924 0-1.738-0.476-2.209-1.196 0.050-0.066 0.061-0.145 0.073-0.213z"></path>
</svg>
