<?xml version="1.0" encoding="utf-8"?>
<!-- Generated by IcoMoon.io -->
<!DOCTYPE svg PUBLIC "-//W3C//DTD SVG 1.1//EN" "http://www.w3.org/Graphics/SVG/1.1/DTD/svg11.dtd">
<svg version="1.1" xmlns="http://www.w3.org/2000/svg" xmlns:xlink="http://www.w3.org/1999/xlink" width="30" height="32" viewBox="0 0 30 32">
<path fill="#0f5f8f" d="M22.82 21.755c-2.066 1.966-4.869 3.176-7.954 3.176s-5.887-1.21-7.958-3.181c-4.145 1.925-6.908 5.307-6.908 9.147 0 0.003 0 0.007 0 0.011 0 0.385 0.027 0.764 0.079 1.134l29.579-0.043c0.047-0.328 0.074-0.707 0.074-1.092 0-0.004 0-0.008 0-0.012 0-3.84-2.763-7.222-6.913-9.142z"></path>
<path fill="#0f5f8f" d="M14.866 18.794c0 0 0 0 0 0 0.836 0 1.547 0.538 1.805 1.287 1.002-0.003 1.96-0.146 2.87-0.402 2.030-0.545 3.779-1.827 4.931-3.543 0.273-0.87 0.419-1.835 0.419-2.833 0-5.535-4.487-10.022-10.022-10.022s-10.022 4.487-10.022 10.022c0 5.535 4.487 10.022 10.022 10.022 3.214 0 6.075-1.513 7.909-3.865-0.858 0.565-1.872 1.035-2.957 1.335-0.986 0.276-2.038 0.433-3.123 0.451-0.261 0.782-0.981 1.338-1.831 1.338-1.054 0-1.908-0.854-1.908-1.908s0.854-1.908 1.908-1.908c0.004 0 0.008 0 0.013 0z"></path>
<path fill="#0f5f8f" d="M3.828 15.932v-6.194c1.423-4.841 5.825-8.315 11.038-8.315s9.616 3.474 11.018 8.234l0.021 6.276c1.883-0.431 3.266-2.091 3.266-4.075 0-1.622-0.925-3.028-2.276-3.719-1.981-4.813-6.613-8.137-12.022-8.137s-10.041 3.323-11.967 8.039c-1.406 0.789-2.331 2.194-2.331 3.816 0 1.984 1.383 3.644 3.238 4.069z"></path>
</svg>
