<?xml version="1.0" encoding="utf-8"?>
<!-- Generated by IcoMoon.io -->
<!DOCTYPE svg PUBLIC "-//W3C//DTD SVG 1.1//EN" "http://www.w3.org/Graphics/SVG/1.1/DTD/svg11.dtd">
<svg version="1.1" xmlns="http://www.w3.org/2000/svg" xmlns:xlink="http://www.w3.org/1999/xlink" width="32" height="32" viewBox="0 0 32 32">
<path fill="#fff" d="M16 0c-8.837 0-16 7.163-16 16s7.163 16 16 16c8.837 0 16-7.163 16-16s-7.163-16-16-16zM25.822 22.222c-0.515 2.232-2.486 3.871-4.839 3.871-0.265 0-0.526-0.021-0.78-0.061-3.635-0.636-6.806-2.403-9.191-4.922-2.516-2.369-4.259-5.52-4.839-9.062-0.315-2.964 0.939-5.195 3.321-6.039 0.136-0.047 0.293-0.074 0.456-0.074 0.585 0 1.090 0.347 1.318 0.847l1.266 2.765c0.083 0.178 0.132 0.386 0.132 0.606 0 0.402-0.163 0.766-0.425 1.029l-1.956 1.956s0.044 1.547 3.227 4.729 4.729 3.227 4.729 3.227l1.929-1.929c0.263-0.261 0.626-0.422 1.026-0.422 0.239 0 0.464 0.057 0.663 0.159l3.218 1.623c0.479 0.245 0.802 0.736 0.802 1.302 0 0.141-0.020 0.277-0.057 0.406z"></path>
</svg>
