<?xml version="1.0" encoding="utf-8"?>
<!-- Generated by IcoMoon.io -->
<!DOCTYPE svg PUBLIC "-//W3C//DTD SVG 1.1//EN" "http://www.w3.org/Graphics/SVG/1.1/DTD/svg11.dtd">
<svg version="1.1" xmlns="http://www.w3.org/2000/svg" xmlns:xlink="http://www.w3.org/1999/xlink" width="31" height="32" viewBox="0 0 31 32">
<path fill="#0f5f8f" d="M19.306 17.102c0.766 0.906 0.653 2.262-0.253 3.029s-2.262 0.653-3.029-0.253c-0.766-0.906-0.653-2.262 0.253-3.029s2.262-0.653 3.029 0.253z"></path>
<path fill="#0f5f8f" d="M18.442 19.419l-1.576-1.862 7.046-4.884 0.521 0.612-5.991 6.134z"></path>
<path fill="#0f5f8f" d="M13.988 0.469v2.683c1.086 0.297 2.334 0.468 3.621 0.468s2.534-0.171 3.72-0.491l-0.1-2.66c-1.086-0.297-2.334-0.468-3.621-0.468s-2.534 0.171-3.72 0.491z"></path>
<path fill="#0f5f8f" d="M16.319 3.243v3.412c0.396 0.286 0.891 0.458 1.426 0.458s1.030-0.172 1.433-0.463l-0.007-3.407c-0.396-0.286-0.891-0.458-1.426-0.458s-1.030 0.172-1.433 0.463z"></path>
<path fill="#0f5f8f" d="M28.002 6.512l-1.954 2.943c-0.030 0.001-0.066 0.002-0.102 0.002-1.331 0-2.469-0.829-2.925-1.999l1.985-3.017c0.013-0 0.028-0 0.044-0 1.35 0 2.502 0.853 2.945 2.049z"></path>
<path fill="#0f5f8f" d="M17.726 4.936c-4.553 0.001-8.58 2.252-11.029 5.702l3.592 0.042c1.934-1.855 4.564-2.998 7.461-2.998 5.956 0 10.784 4.828 10.784 10.784s-4.828 10.784-10.784 10.784c-3.126 0-5.941-1.33-7.911-3.455l-3.484-0.007c2.444 3.768 6.63 6.225 11.39 6.225 7.473 0 13.532-6.058 13.532-13.532s-6.058-13.532-13.532-13.532c-0.007 0-0.014 0-0.021 0z"></path>
<path fill="#0f5f8f" d="M4.545 12.894h9.078v1.719h-9.078v-1.719z"></path>
<path fill="#0f5f8f" d="M1.654 17.374h9.078v1.719h-9.078v-1.719z"></path>
<path fill="#0f5f8f" d="M0 21.854h9.078v1.719h-9.078v-1.719z"></path>
</svg>
