<svg xmlns="http://www.w3.org/2000/svg" viewBox="0 0 24 28.4"><defs><style>.cls-1{fill:#0f5f8f;}</style></defs><title>apple</title><g id="Layer_2" data-name="Layer 2"><g id="Layer_1-2" data-name="Layer 1"><path class="cls-1" d="M15.75,7.63h0c2.23,0,4.85-2,7.78-5.88L24,1.13,23.27.85A14.34,14.34,0,0,0,18.67,0C15.12,0,13,1.9,12.62,5.35a13.49,13.49,0,0,0-.94,1A11,11,0,0,0,9.1,1.64L7.87,2.73c2.48,2.82,2.53,5.36,2.31,6.7A14.55,14.55,0,0,0,6.8,9C3.93,9,1.88,10.09.88,12.16c-2.26,4.68,0,11.48,5.05,15.48A3.33,3.33,0,0,0,8,28.4a4.67,4.67,0,0,0,2.76-1.07,4.67,4.67,0,0,0,2.76,1.07h0a3.33,3.33,0,0,0,2.1-.75c5.09-4,7.31-10.8,5.05-15.48-1-2.08-3-3.17-5.92-3.17a14.17,14.17,0,0,0-2.93.33,8.39,8.39,0,0,0,0-2,12,12,0,0,1,1-1.23A3.49,3.49,0,0,0,15.75,7.63Zm2.93-6.46a11.19,11.19,0,0,1,1.91.18,14.39,14.39,0,0,0-6.53,2.74C14.69,2.14,16.21,1.18,18.67,1.18Zm-4.85,4a13.8,13.8,0,0,1,8.1-3.28c-3,3.73-5,4.55-6.18,4.55h0a2.34,2.34,0,0,1-2-1.07C13.8,5.32,13.81,5.25,13.82,5.19Z"/></g></g></svg>