<svg xmlns="http://www.w3.org/2000/svg" viewBox="0 0 36 36"><defs><style>.cls-1{fill:#fff;}</style></defs><title>phone-white</title><g id="Layer_2" data-name="Layer 2"><g id="Layer_1-2" data-name="Layer 1"><path class="cls-1" d="M18,0A18,18,0,1,0,36,18,18,18,0,0,0,18,0ZM29.05,25a5.58,5.58,0,0,1-6.29,4.29,18.58,18.58,0,0,1-10.38-5.55A18,18,0,0,1,6.93,13.45C6.59,10.22,8,7.71,10.68,6.76a1.63,1.63,0,0,1,2,.88l1.42,3.1a1.64,1.64,0,0,1-.33,1.84l-2.2,2.2s.05,1.74,3.63,5.32,5.32,3.63,5.32,3.63l2.17-2.17a1.64,1.64,0,0,1,1.89-.3l3.63,1.83A1.64,1.64,0,0,1,29.05,25Z"/></g></g></svg>